<svg id="Layer_2" data-name="Layer 2" xmlns="http://www.w3.org/2000/svg" width="27" height="27" viewBox="0 0 27 27">
  <g id="invisible_box" data-name="invisible box">
    <rect id="Rectangle_8" data-name="Rectangle 8" width="27" height="27" fill="none"/>
  </g>
  <g id="icons_Q2" data-name="icons Q2" transform="translate(1.696 2.329)">
    <path id="Path_5" data-name="Path 5" d="M19.062,17.627a8.388,8.388,0,0,0,1.7-6.178,8.615,8.615,0,0,0-7.822-7.482,8.516,8.516,0,1,0-1.7,16.947,8.672,8.672,0,0,0,6.235-1.644L24.56,26.3a1.077,1.077,0,0,0,1.587,0h0a1.077,1.077,0,0,0,0-1.587Zm-5.725,1.02A6.235,6.235,0,0,1,6.2,11.392,6.121,6.121,0,0,1,11.24,6.347a6.178,6.178,0,0,1,7.2,7.2,6.291,6.291,0,0,1-5.1,5.1Z" transform="translate(-3.574 -3.924)" fill="#a2a2a2"/>
  </g>
</svg>
